<svg xmlns="http://www.w3.org/2000/svg" viewBox="0 0 1024 1024" role="img" aria-hidden="true">
  <defs>
    <linearGradient id="bg" x1="0" y1="0" x2="1" y2="1">
      <stop offset="0" stop-color="#fff5df"/>
      <stop offset="0.52" stop-color="#e8f6f0"/>
      <stop offset="1" stop-color="#f3eafb"/>
    </linearGradient>
    <filter id="shadow" x="-20%" y="-20%" width="140%" height="140%">
      <feDropShadow dx="0" dy="18" stdDeviation="20" flood-color="#8e7588" flood-opacity="0.16"/>
    </filter>
  </defs>
  <rect width="1024" height="1024" rx="96" fill="url(#bg)"/>
  <circle cx="170" cy="170" r="78" fill="#fff" opacity="0.62"/>
  <circle cx="845" cy="220" r="54" fill="#fff" opacity="0.52"/>
  <path d="M83 792c132-102 245-124 364-58 119 66 256 58 494-84v291H83z" fill="#bfe7d7" opacity="0.72"/>
  <g filter="url(#shadow)">
    <rect x="390" y="410" width="374" height="306" rx="42" fill="#fffdfb" stroke="#e7c9d5" stroke-width="12"/>
    <rect x="430" y="455" width="294" height="188" rx="26" fill="#dceef9"/>
    <circle cx="507" cy="532" r="38" fill="#ffd36f"/>
    <path d="M453 617l72-74 58 52 55-76 62 98z" fill="#86c7a7"/>
    <path d="M577 716v72" stroke="#8e7184" stroke-width="18" stroke-linecap="round"/>
    <path d="M512 790h130" stroke="#8e7184" stroke-width="18" stroke-linecap="round"/>
  </g>
  <g filter="url(#shadow)">
    <circle cx="286" cy="390" r="118" fill="#ffd9ba"/>
    <path d="M184 383c12-104 74-165 151-138 60 21 86 85 66 157-28-49-67-75-118-78-42-2-75 17-99 59z" fill="#69556c"/>
    <circle cx="246" cy="398" r="10" fill="#5c4d58"/>
    <circle cx="325" cy="398" r="10" fill="#5c4d58"/>
    <path d="M253 448c24 20 50 20 74 0" fill="none" stroke="#dc8295" stroke-width="12" stroke-linecap="round"/>
    <path d="M168 538c38-58 88-86 150-83 67 4 122 40 160 108l-59 280H163z" fill="#f3a9bd"/>
    <path d="M393 570c58 29 98 66 119 112" fill="none" stroke="#ffd9ba" stroke-width="48" stroke-linecap="round"/>
    <circle cx="518" cy="688" r="29" fill="#ffd9ba"/>
    <path d="M206 851v78M366 851v78" stroke="#6a7795" stroke-width="54" stroke-linecap="round"/>
    <path d="M172 938h72M330 938h72" stroke="#5f5265" stroke-width="28" stroke-linecap="round"/>
  </g>
  <g fill="#fff" opacity="0.86">
    <circle cx="747" cy="371" r="16"/>
    <circle cx="792" cy="343" r="11"/>
    <circle cx="826" cy="377" r="8"/>
  </g>
</svg>
